<svg width="21" height="12" viewBox="0 0 21 12" fill="none" xmlns="http://www.w3.org/2000/svg">
<path d="M7.54548 10.7694C7.99735 10.7694 8.36366 10.5757 8.36366 10.3367C8.36366 10.0978 7.99735 9.90405 7.54548 9.90405C7.09361 9.90405 6.72729 10.0978 6.72729 10.3367C6.72729 10.5757 7.09361 10.7694 7.54548 10.7694Z" stroke="black" stroke-width="2" stroke-linecap="round" stroke-linejoin="round"/>
<path d="M16.5455 10.7694C16.9973 10.7694 17.3637 10.5757 17.3637 10.3367C17.3637 10.0978 16.9973 9.90405 16.5455 9.90405C16.0936 9.90405 15.7273 10.0978 15.7273 10.3367C15.7273 10.5757 16.0936 10.7694 16.5455 10.7694Z" stroke="black" stroke-width="2" stroke-linecap="round" stroke-linejoin="round"/>
<path d="M1 1.68286H4.27273L6.46545 7.47666C6.54027 7.67588 6.7452 7.85482 7.04436 7.98218C7.34351 8.10954 7.71784 8.1772 8.10182 8.17331H16.0545C16.4385 8.1772 16.8129 8.10954 17.112 7.98218C17.4112 7.85482 17.6161 7.67588 17.6909 7.47666L19 3.84634H8.5" stroke="black" stroke-width="2" stroke-linecap="round" stroke-linejoin="round"/>
<path d="M18.8182 4.13492C19.2701 4.13492 19.6364 3.9412 19.6364 3.70223C19.6364 3.46326 19.2701 3.26953 18.8182 3.26953C18.3663 3.26953 18 3.46326 18 3.70223C18 3.9412 18.3663 4.13492 18.8182 4.13492Z" stroke="#E27B3A" stroke-width="2" stroke-linecap="round" stroke-linejoin="round"/>
</svg>
